<?xml version="1.0" encoding="UTF-8" standalone="no"?>
<!-- Created with Inkscape (http://www.inkscape.org/) -->

<svg
   width="118.13121mm"
   height="24.075457mm"
   viewBox="0 0 118.12972 24.075153"
   version="1.1"
   id="svg5"
   inkscape:version="1.1.1 (3bf5ae0d25, 2021-09-20)"
   sodipodi:docname="spatial-logo-2022-07-07.svg"
   inkscape:export-filename="C:\Users\Kitty\Box\projects\website_spatial\graphics\new_logo\spatial-logo-2022.png"
   inkscape:export-xdpi="150.00539"
   inkscape:export-ydpi="150.00539"
   xmlns:inkscape="http://www.inkscape.org/namespaces/inkscape"
   xmlns:sodipodi="http://sodipodi.sourceforge.net/DTD/sodipodi-0.dtd"
   xmlns="http://www.w3.org/2000/svg"
   xmlns:svg="http://www.w3.org/2000/svg">
  <sodipodi:namedview
     id="namedview7"
     pagecolor="#001a66"
     bordercolor="#666666"
     borderopacity="1.0"
     inkscape:pageshadow="2"
     inkscape:pageopacity="1"
     inkscape:pagecheckerboard="false"
     inkscape:document-units="px"
     showgrid="false"
     showguides="false"
     inkscape:zoom="1.5287038"
     inkscape:cx="151.43548"
     inkscape:cy="41.865533"
     inkscape:window-width="1538"
     inkscape:window-height="878"
     inkscape:window-x="-6"
     inkscape:window-y="-6"
     inkscape:window-maximized="1"
     inkscape:current-layer="layer3"
     lock-margins="false"
     fit-margin-top="0"
     fit-margin-left="0"
     fit-margin-right="0"
     fit-margin-bottom="0"
     scale-x="0.26458">
    <inkscape:grid
       type="xygrid"
       id="grid308690"
       originx="-25.486696"
       originy="-93.888376" />
  </sodipodi:namedview>
  <defs
     id="defs2">
    <linearGradient
       id="linearGradient4976"
       inkscape:swatch="solid">
      <stop
         style="stop-color:#000000;stop-opacity:1;"
         offset="0"
         id="stop4974" />
    </linearGradient>
    <rect
       x="134.75468"
       y="408.18896"
       width="558.64325"
       height="243.34343"
       id="rect3663" />
  </defs>
  <g
     inkscape:groupmode="layer"
     id="layer2"
     inkscape:label="spatial"
     style="display:inline"
     transform="translate(-25.486698,-93.888363)">
    <g
       aria-label="spatial"
       id="text41273"
       style="font-size:22.5778px;line-height:1.25;font-family:'Merriweather Sans';-inkscape-font-specification:'Merriweather Sans';letter-spacing:-1.32292px;word-spacing:0px;display:inline;fill:#ffffff;stroke-width:0.264583"
       inkscape:groupmode="layer">
      <path
         d="m 25.486698,111.64204 0.361245,-1.91911 q 0.169334,0.12418 0.699912,0.33866 0.541867,0.2032 1.286935,0.38383 0.756356,0.16933 1.557868,0.18062 1.083734,0.0113 1.648179,-0.37253 0.564445,-0.38383 0.564445,-1.07245 0,-0.48542 -0.338667,-0.84667 -0.338667,-0.36124 -0.936979,-0.66604 -0.587022,-0.31609 -1.343379,-0.65476 -1.016001,-0.46284 -1.794935,-1.00471 -0.778934,-0.54187 -1.219201,-1.27565 -0.428978,-0.73378 -0.417689,-1.76107 0.02258,-1.1176 0.643467,-1.85137 0.632178,-0.74507 1.670757,-1.10632 1.038579,-0.361242 2.314225,-0.361242 1.185334,0 2.077157,0.248356 0.891824,0.237066 1.174046,0.406396 l -0.383823,1.96427 q -0.2032,-0.16933 -0.632178,-0.32737 -0.417689,-0.16934 -0.970845,-0.27094 -0.553156,-0.1016 -1.12889,-0.1016 -1.151468,0 -1.738491,0.33867 -0.587023,0.32738 -0.609601,0.92569 -0.01129,0.82409 0.564445,1.23049 0.587023,0.4064 1.399824,0.80151 1.162757,0.56445 2.099735,1.1176 0.936979,0.54187 1.478846,1.25307 0.553157,0.69991 0.553157,1.73849 0,1.76107 -1.207913,2.67547 -1.207912,0.9144 -3.307648,0.9144 -0.869245,0 -1.693335,-0.13547 -0.812801,-0.13546 -1.444979,-0.34995 -0.620889,-0.21449 -0.92569,-0.44027 z"
         id="path60"
         style="display:inline;fill:#ffffff" />
      <path
         d="M 35.136643,117.96382 V 99.811273 h 2.370669 v 1.535287 l 0.225778,0.27094 v 9.73103 l -0.02258,0.51929 0.02258,2.05458 v 4.04142 z m 4.639738,-5.39609 q -1.162757,0 -1.941691,-0.29351 -0.778934,-0.29351 -1.004712,-0.47413 l 0.903112,-1.67076 q 0.361245,0.3048 0.903112,0.44026 0.553156,0.12418 1.320802,0.12418 0.970845,0 1.749779,-0.54186 0.778934,-0.55316 1.23049,-1.60303 0.462845,-1.06115 0.485423,-2.58516 0.02258,-2.25778 -0.790223,-3.27378 -0.801512,-1.02729 -2.246491,-1.02729 -0.880534,0 -1.569157,0.33867 -0.677334,0.32738 -1.083735,0.64347 l -0.4064,-1.28694 q 0.259645,-0.27093 0.711201,-0.67733 0.451556,-0.4064 1.196623,-0.711203 0.745067,-0.316089 1.873957,-0.316089 1.332091,0 2.460981,0.654752 1.140179,0.64347 1.828802,1.97556 0.688623,1.3208 0.688623,3.35281 0,2.04329 -0.790224,3.61244 -0.778934,1.55787 -2.201335,2.43841 -1.411113,0.88053 -3.318937,0.88053 z"
         id="path62"
         style="fill:#ffffff" />
      <path
         d="m 50.888627,112.56773 q -1.12889,0 -2.009424,-0.44027 -0.869245,-0.45155 -1.377246,-1.26435 -0.496711,-0.82409 -0.496711,-1.94169 0,-1.20792 0.643467,-2.0433 0.654756,-0.84666 1.749779,-1.3208 0.72249,-0.29351 1.569158,-0.46284 0.846667,-0.18062 1.693335,-0.24836 0.846667,-0.079 1.569157,-0.079 l 0.541867,0.68862 -0.541867,0.9144 q -0.440267,0 -1.061157,0.0677 -0.609601,0.0564 -1.207912,0.19191 -0.598312,0.12418 -1.016001,0.32738 -0.575734,0.25964 -0.959557,0.66604 -0.383822,0.4064 -0.383822,1.12889 0,0.94827 0.519289,1.43369 0.530578,0.48542 1.569157,0.48542 0.530578,0 1.072446,-0.15804 0.541867,-0.15804 0.936978,-0.36124 0.406401,-0.2032 0.530579,-0.34996 l 0.519289,0.55316 -0.372534,0.97084 q -0.496711,0.45156 -1.43369,0.84667 -0.936979,0.39511 -2.05458,0.39511 z m 5.949251,-0.18062 h -2.460981 v -1.87396 h -0.146755 v -6.93138 q 0,-1.10632 -0.587023,-1.45627 -0.575734,-0.36125 -1.64818,-0.36125 -0.7112,0 -1.467557,0.14676 -0.756356,0.13547 -1.388534,0.34995 -0.632179,0.2032 -0.970846,0.41769 l -0.6096,-1.87395 q 0.259644,-0.15805 0.993423,-0.44027 0.745067,-0.28222 1.727202,-0.508002 0.993423,-0.237066 1.964268,-0.237066 1.411113,0 2.438403,0.327378 1.038579,0.32738 1.591735,1.2192 0.564445,0.88054 0.564445,2.56258 z"
         id="path64"
         style="fill:#ffffff" />
      <path
         d="m 63.042202,112.56773 q -0.891823,0 -1.569157,-0.28222 -0.677334,-0.28222 -1.061156,-0.99343 -0.372534,-0.72249 -0.372534,-2.04329 v -7.5184 h -1.625602 v -1.39983 q 0.835379,-0.23706 1.275646,-0.395109 0.440267,-0.169334 0.643467,-0.711201 0.09031,-0.248356 0.203201,-0.587023 0.112889,-0.349956 0.248355,-0.767645 0.135467,-0.428978 0.293512,-0.92569 h 1.557868 v 2.867381 h 3.522137 v 1.919117 h -3.522137 v 6.14116 q 0,1.2192 0.1016,1.78364 0.112889,0.55316 0.406401,0.7112 0.3048,0.14676 0.891823,0.14676 0.316089,0 0.722489,-0.0677 0.41769,-0.079 0.790223,-0.19191 0.383823,-0.11289 0.587023,-0.23707 l 0.428978,1.49013 q -0.338667,0.25965 -0.914401,0.508 -0.564445,0.23707 -1.253067,0.39512 -0.677335,0.15804 -1.354669,0.15804 z"
         id="path66"
         style="fill:#ffffff" />
      <path
         d="M 68.206607,112.38711 V 99.833851 h 2.596448 v 12.553259 z m 1.151468,-14.777173 q -0.654756,0 -1.151468,-0.417689 -0.485422,-0.417689 -0.485422,-1.140179 0,-0.496712 0.270933,-0.891823 0.282223,-0.406401 0.711201,-0.643467 0.428978,-0.248356 0.891823,-0.248356 0.801512,0 1.207913,0.451556 0.4064,0.451556 0.4064,1.106312 0,0.778934 -0.564445,1.286935 -0.553156,0.496711 -1.286935,0.496711 z"
         id="path68"
         style="fill:#ffffff" />
      <path
         d="m 76.174488,112.56773 q -1.12889,0 -2.009424,-0.44027 -0.869246,-0.45155 -1.377246,-1.26435 -0.496712,-0.82409 -0.496712,-1.94169 0,-1.20792 0.643467,-2.0433 0.654757,-0.84666 1.74978,-1.3208 0.72249,-0.29351 1.569157,-0.46284 0.846668,-0.18062 1.693335,-0.24836 0.846668,-0.079 1.569157,-0.079 l 0.541868,0.68862 -0.541868,0.9144 q -0.440267,0 -1.061156,0.0677 -0.609601,0.0564 -1.207913,0.19191 -0.598311,0.12418 -1.016001,0.32738 -0.575734,0.25964 -0.959556,0.66604 -0.383823,0.4064 -0.383823,1.12889 0,0.94827 0.51929,1.43369 0.530578,0.48542 1.569157,0.48542 0.530578,0 1.072445,-0.15804 0.541867,-0.15804 0.936979,-0.36124 0.4064,-0.2032 0.530578,-0.34996 l 0.51929,0.55316 -0.372534,0.97084 q -0.496712,0.45156 -1.43369,0.84667 -0.936979,0.39511 -2.05458,0.39511 z m 5.94925,-0.18062 h -2.46098 v -1.87396 h -0.146756 v -6.93138 q 0,-1.10632 -0.587022,-1.45627 -0.575734,-0.36125 -1.64818,-0.36125 -0.711201,0 -1.467557,0.14676 -0.756356,0.13547 -1.388535,0.34995 -0.632178,0.2032 -0.970845,0.41769 l -0.609601,-1.87395 q 0.259645,-0.15805 0.993423,-0.44027 0.745068,-0.28222 1.727202,-0.508002 0.993423,-0.237066 1.964269,-0.237066 1.411112,0 2.438402,0.327378 1.038579,0.32738 1.591735,1.2192 0.564445,0.88054 0.564445,2.56258 z"
         id="path70"
         style="fill:#ffffff" />
      <path
         id="path72"
         style="display:inline;fill:#ffffff;stroke-width:0.999999"
         d="m 317.06641,355.39453 v 69.375 h 9.89843 v -8.90039 c -0.85514,-0.96698 -1.60961,-2.0134 -2.25586,-3.14062 -1.55297,-2.72512 -2.32226,-5.926 -2.32226,-9.57422 0,-4.02214 0.92914,-7.67285 2.7832,-10.93946 0.53692,-0.95072 1.13664,-1.86161 1.79492,-2.73437 v -34.08594 z m 9.89843,34.08594 v 1.15234 c 1.65593,-2.37694 3.75072,-4.47325 6.29883,-6.28711 3.23969,-2.28967 7.0196,-4.04899 11.33789,-5.27734 4.3172,-1.22803 8.97589,-1.8457 13.97656,-1.8457 5.11681,0 9.61454,0.64572 13.50196,1.93359 v 0.008 c 3.88549,1.27136 6.90522,3.134 9.08008,5.58789 2.16778,2.446 3.24414,5.40816 3.24414,8.95313 0,3.07604 -0.55134,5.79621 -1.65039,8.17187 -1.0808,2.38594 -2.54865,4.40019 -4.40625,6.03907 -1.84045,1.64386 -3.9089,2.88877 -6.20899,3.74218 -2.3031,0.85455 -4.64273,1.27735 -7.03515,1.27735 -1.70283,0 -2.92514,-0.37063 -3.70508,-1.04883 h -0.008 c -0.76642,-0.69097 -1.2236,-1.67671 -1.35742,-3.02539 v -0.008 c -0.087,-0.70213 -0.0491,-1.69226 0.10938,-2.93164 l 0.47461,-1.11329 -0.58399,-0.33984 c -1.06969,1.5027 -2.03529,3.25267 -3.33203,4.43555 -1.33159,1.21474 -2.80056,2.19081 -4.40625,2.93164 -1.59222,0.73462 -3.30642,1.09961 -5.15625,1.09961 -1.48778,0 -2.97679,-0.35221 -4.47851,-1.07032 h -0.008 c -1.46282,-0.72786 -2.66557,-1.81982 -3.61718,-3.29882 -0.93678,-1.45595 -1.37532,-3.32839 -1.30664,-5.64063 0.0453,-1.57187 0.44097,-3.20173 1.19726,-4.88672 0.77541,-1.68914 1.91185,-3.25893 3.42578,-4.70898 1.52918,-1.44284 3.47821,-2.61825 5.85352,-3.52149 2.36087,-0.89775 5.18447,-1.35156 8.47461,-1.35156 1.45875,0 2.89717,0.0982 4.30859,0.28906 1.42357,0.18936 2.60558,0.51941 3.54492,0.98047 l 0.0859,0.0449 5.52344,-0.72265 c -0.26601,0.75375 -0.53892,1.54904 -0.86914,2.52344 -0.39831,1.1752 -0.81286,2.42275 -1.23438,3.74218 -0.3981,1.30345 -0.78741,2.61062 -1.16211,3.91407 v 0.006 c -0.35176,1.30533 -0.65372,2.52433 -0.91211,3.65429 -0.44726,2.13502 -0.6567,3.75282 -0.60742,4.88672 v 0.008 c 0.0379,0.58054 0.1729,1.05365 0.45313,1.40235 0.28025,0.34885 0.71048,0.53125 1.18359,0.53125 1.3274,0 2.6842,-0.39854 4.05469,-1.17383 1.39488,-0.77666 2.68107,-1.85084 3.84961,-3.21094 1.1721,-1.38066 2.11402,-2.98856 2.82812,-4.82031 0.74183,-1.85805 1.10938,-3.85732 1.10938,-5.98633 0,-2.88884 -0.55386,-5.29043 -1.69336,-7.18945 -1.1304,-1.88395 -2.70036,-3.35912 -4.69141,-4.41406 -1.9771,-1.0475 -4.2613,-1.77876 -6.83789,-2.18555 h -0.008 c -2.56718,-0.42036 -5.31312,-0.62696 -8.22656,-0.62695 -3.88948,0 -7.56546,0.53051 -11.03711,1.60156 -3.44765,1.07089 -6.50177,2.61164 -9.1543,4.61328 -2.65493,1.9872 -4.7489,4.37102 -6.26953,7.14648 -1.52493,2.78329 -2.28516,5.86987 -2.28516,9.24805 0,3.38842 0.67627,6.28423 2.04492,8.66016 1.36012,2.36099 3.20143,4.26516 5.51563,5.6914 2.32476,1.43441 4.94662,2.46556 7.85352,3.09961 2.90127,0.64827 5.89925,0.97461 8.98632,0.97461 2.39672,0 4.52669,-0.12536 6.39258,-0.36914 1.85525,-0.22602 3.44159,-0.50783 4.76953,-0.84961 1.21376,-0.29253 2.15369,-0.56443 2.95313,-0.83398 l 1.0664,2.53906 c -1.45238,0.58832 -3.48189,1.14646 -6.29101,1.63281 -2.92469,0.51039 -6.12365,0.75977 -9.5918,0.75977 -4.09253,0 -7.92673,-0.43008 -11.5,-1.29102 -3.54636,-0.84412 -6.65116,-2.13287 -9.32812,-3.86133 -1.77028,-1.15359 -3.28386,-2.50363 -4.53907,-4.04882 v 1.04687 c 1.19234,1.34827 2.5838,2.54254 4.17383,3.57813 2.74877,1.77479 5.93105,3.08994 9.54102,3.94921 3.62983,0.87459 7.51276,1.3125 11.65234,1.3125 h 0.35742 v -0.0293 c 3.35295,-0.0189 6.48651,-0.24735 9.34571,-0.7461 2.98388,-0.51666 5.23832,-1.09406 6.77929,-1.75586 l 0.30664,-0.13476 -1.58593,-3.79297 -0.29883,0.10352 c -0.80139,0.28308 -1.86747,0.58864 -3.19336,0.9082 h -0.008 c -1.29015,0.3326 -2.85237,0.61001 -4.68946,0.83398 l -0.008,0.006 c -1.8292,0.23887 -3.93053,0.35547 -6.30469,0.35547 -3.04024,0 -5.988,-0.31571 -8.83984,-0.95312 -2.84341,-0.61951 -5.3913,-1.62685 -7.64844,-3.01953 -2.22283,-1.36993 -3.97722,-3.18027 -5.2832,-5.44727 -1.29741,-2.25226 -1.95703,-5.02174 -1.95703,-8.31836 0,-3.27458 0.7365,-6.23757 2.20508,-8.91797 1.47285,-2.68823 3.49639,-4.99781 6.08007,-6.93164 2.58609,-1.95152 5.56796,-3.45365 8.94922,-4.50391 3.40405,-1.05018 7.01366,-1.57226 10.8418,-1.57226 2.88387,0 5.59393,0.20659 8.12305,0.62109 2.51865,0.39693 4.72956,1.10295 6.63281,2.11133 1.89125,1.00203 3.35976,2.38222 4.42773,4.16211 1.05901,1.76493 1.59961,4.03606 1.59961,6.83594 0,2.04907 -0.3582,3.95482 -1.0664,5.72851 v 0.008 c -0.6884,1.76579 -1.59299,3.30309 -2.71094,4.62109 -1.12335,1.30749 -2.34218,2.33058 -3.66016,3.06445 h -0.006 c -1.29331,0.73282 -2.5304,1.08399 -3.72656,1.08399 -0.32198,0 -0.50581,-0.0837 -0.6582,-0.27344 -0.15137,-0.18822 -0.26557,-0.52106 -0.29883,-1.01172 v -0.006 c -0.0435,-1.01805 0.14466,-2.59609 0.58398,-4.69531 v -0.008 c 0.25576,-1.11806 0.56493,-2.32938 0.91407,-3.625 l -0.008,0.008 c 0.37365,-1.29978 0.76511,-2.59862 1.16211,-3.89844 h -0.008 c 0.42043,-1.31603 0.8297,-2.55563 1.22656,-3.72656 0.39711,-1.17177 0.74974,-2.18571 1.05274,-3.03516 l 0.18945,-0.52343 -6.45898,0.83398 c -1.00441,-0.47478 -2.19076,-0.81451 -3.61524,-1.00391 -1.44175,-0.19464 -2.91048,-0.29492 -4.39844,-0.29492 -3.35169,0 -6.25219,0.46031 -8.70898,1.39453 -2.44235,0.92871 -4.47348,2.14807 -6.07813,3.66211 v 0.008 c -1.57043,1.50418 -2.77111,3.14538 -3.58593,4.92383 -0.78724,1.75397 -1.20958,3.47035 -1.25781,5.14453 -0.0716,2.41225 0.39807,4.43395 1.42578,6.03125 1.01181,1.57255 2.31147,2.76035 3.88672,3.54297 h 0.008 c 1.58295,0.7581 3.17256,1.14453 4.76953,1.14453 1.93881,0 3.76144,-0.39004 5.44336,-1.16601 1.66843,-0.76978 3.191,-1.781 4.57226,-3.04102 0.94848,-0.86521 1.59173,-1.97791 2.29493,-3.04101 -0.0984,0.9815 -0.16946,1.90181 -0.0879,2.56054 0.14747,1.47202 0.67422,2.65086 1.58593,3.46875 h 0.008 c 0.95089,0.8301 2.34642,1.21875 4.14844,1.21875 2.47206,0 4.8952,-0.44125 7.26953,-1.32226 2.37722,-0.88207 4.52018,-2.17644 6.42188,-3.875 1.93096,-1.70362 3.4547,-3.79268 4.57226,-6.25977 1.14615,-2.4774 1.7168,-5.30001 1.7168,-8.45898 0,-3.68648 -1.14235,-6.84441 -3.41797,-9.41211 -2.26873,-2.5598 -5.40051,-4.48726 -9.37304,-5.78711 -3.9705,-1.31538 -8.53963,-1.96484 -13.7129,-1.96484 v 0.002 c -5.05559,0 -9.77555,0.62055 -14.1582,1.86719 -4.38156,1.24633 -8.23438,3.03664 -11.54297,5.375 -2.33289,1.66067 -4.30248,3.56123 -5.91211,5.69531 z m 0,25.3418 v -24.18946 c -0.43307,0.62164 -0.83808,1.26167 -1.21093,1.92188 -1.79427,3.16127 -2.68946,6.6833 -2.68946,10.59961 0,3.54833 0.74345,6.61988 2.22852,9.22851 v 0.008 c 0.49327,0.85985 1.05185,1.66837 1.67187,2.43165 z m 29.01368,-23.33789 c -1.88445,0 -3.58108,0.31293 -5.07813,0.94335 -1.46069,0.60964 -2.71844,1.43604 -3.75586,2.48047 -1.00764,1.02203 -1.8025,2.16235 -2.38086,3.4043 -0.55352,1.24021 -0.85761,2.48416 -0.90625,3.7207 -0.0956,2.08494 0.22007,3.8152 0.98633,5.17383 h 0.008 v 0.008 c 0.7367,1.2497 2.06119,1.77805 3.63086,1.88868 v 0.17773 h 0.34375 c 1.04111,0 2.12884,-0.38187 3.26563,-1.11328 h 0.008 c 1.12603,-0.74079 2.23315,-1.69966 3.32422,-2.87305 1.11129,-1.18609 2.13707,-2.46595 3.08203,-3.8457 0.96814,-1.39544 1.78371,-2.78578 2.44726,-4.16992 0.66383,-1.38475 1.10412,-2.6264 1.32227,-3.74219 l 0.0371,-0.17773 -0.11719,-0.125 c -0.62749,-0.68263 -1.5759,-1.13096 -2.8125,-1.38086 -1.18881,-0.2453 -2.32633,-0.36915 -3.40429,-0.36914 z m 0,0.68554 c 1.02683,0 2.11577,0.11849 3.26562,0.35547 1.07005,0.21619 1.78419,0.60745 2.28516,1.0918 -0.21547,0.99303 -0.5825,2.09913 -1.18946,3.36523 -0.64609,1.34771 -1.4391,2.70753 -2.38867,4.07617 -0.92597,1.35205 -1.93833,2.60347 -3.02539,3.76368 -1.0605,1.14054 -2.12688,2.06404 -3.19922,2.76953 -1.06156,0.683 -2.02379,1.00976 -2.90039,1.00976 -1.62005,0 -2.69991,-0.56918 -3.39062,-1.73437 v -0.008 c -0.68167,-1.21183 -0.99765,-2.80307 -0.90625,-4.79688 0.0448,-1.13953 0.32743,-2.29509 0.84765,-3.46289 v -0.008 c 0.544,-1.16652 1.29463,-2.22624 2.25,-3.19532 0.97244,-0.97897 2.14719,-1.76247 3.53711,-2.34179 1.4029,-0.5907 3.00379,-0.88477 4.81446,-0.88477 z"
         transform="scale(0.26458333)" />
    </g>
  </g>
  <g
     inkscape:label="@"
     inkscape:groupmode="layer"
     id="layer1"
     style="display:inline"
     transform="translate(-25.486698,-93.888363)" />
  <g
     inkscape:groupmode="layer"
     id="g110945"
     inkscape:label="ucsb"
     style="display:inline"
     transform="translate(-25.486698,-93.888363)">
    <g
       aria-label="ucsb"
       id="text110943"
       style="font-size:22.5778px;line-height:1.25;font-family:'Merriweather Sans';-inkscape-font-specification:'Merriweather Sans';letter-spacing:-1.32292px;word-spacing:0px;display:inline;fill:#ffffff;stroke-width:0.264583">
      <path
         d="m 104.58723,112.37958 q -1.23049,0 -1.98684,-0.38382 -0.75636,-0.38382 -1.15147,-1.09502 -0.39511,-0.72249 -0.54187,-1.71592 -0.13547,-0.99342 -0.13547,-2.20133 v -7.360366 h 2.59645 v 7.337786 q 0,1.49013 0.22578,2.19005 0.23707,0.69991 0.72249,0.90311 0.49671,0.2032 1.28693,0.2032 0.46285,0 0.98214,-0.13547 0.53058,-0.14675 0.99342,-0.33867 0.46285,-0.2032 0.73378,-0.38382 v -9.776186 h 2.59645 v 12.756456 h -1.19663 q -0.51929,0 -0.82409,-0.15804 -0.3048,-0.14676 -0.3048,-0.76765 v -0.88053 l 0.0452,0.49671 q -0.508,0.33867 -1.19662,0.64347 -0.67734,0.29351 -1.42241,0.48542 -0.74506,0.18062 -1.4224,0.18062 z"
         id="path93"
         style="fill:#ffffff" />
      <path
         d="m 112.17128,106.0578 q 0,-1.86267 0.67733,-3.35281 0.67734,-1.49013 2.03201,-2.35938 1.35466,-0.88053 3.38667,-0.88053 1.18533,0 2.00942,0.214489 0.82409,0.214489 1.12889,0.417691 l -0.4064,2.05458 q -0.47413,-0.32738 -1.14018,-0.48542 -0.66604,-0.16934 -1.61431,-0.16934 -0.84667,0 -1.63689,0.41769 -0.79023,0.4064 -1.3208,1.30951 -0.53058,0.90312 -0.58703,2.38196 -0.0451,1.55787 0.4064,2.63032 0.46285,1.06115 1.26436,1.61431 0.8128,0.54187 1.80622,0.54187 0.93698,0 1.72721,-0.23707 0.80151,-0.23707 1.20791,-0.48542 l 0.49671,1.51271 q -0.57573,0.54187 -1.6256,0.86924 -1.04987,0.32738 -2.2352,0.32738 -1.79494,0 -3.03672,-0.83538 -1.24178,-0.83538 -1.89653,-2.25778 -0.64347,-1.43369 -0.64347,-3.22862 z"
         id="path95"
         style="fill:#ffffff" />
      <path
         d="m 122.8296,111.45389 0.36125,-1.91911 q 0.16933,0.12418 0.69991,0.33867 0.54187,0.2032 1.28693,0.38382 0.75636,0.16933 1.55787,0.18062 1.08374,0.0113 1.64818,-0.37253 0.56445,-0.38383 0.56445,-1.07245 0,-0.48542 -0.33867,-0.84667 -0.33867,-0.36124 -0.93698,-0.66604 -0.58702,-0.31609 -1.34338,-0.65476 -1.016,-0.46284 -1.79493,-1.00471 -0.77894,-0.54187 -1.21921,-1.27565 -0.42897,-0.73377 -0.41768,-1.76106 0.0226,-1.1176 0.64346,-1.85138 0.63218,-0.74507 1.67076,-1.106315 1.03858,-0.361245 2.31422,-0.361245 1.18534,0 2.07716,0.248356 0.89183,0.237066 1.17405,0.406404 l -0.38382,1.96426 q -0.2032,-0.16933 -0.63218,-0.32737 -0.41769,-0.16934 -0.97085,-0.27094 -0.55315,-0.1016 -1.12889,-0.1016 -1.15147,0 -1.73849,0.33867 -0.58702,0.32738 -0.6096,0.92569 -0.0113,0.82409 0.56445,1.23049 0.58702,0.4064 1.39982,0.80151 1.16276,0.56445 2.09973,1.1176 0.93698,0.54187 1.47885,1.25307 0.55316,0.69991 0.55316,1.73849 0,1.76107 -1.20792,2.67547 -1.20791,0.9144 -3.30764,0.9144 -0.86925,0 -1.69334,-0.13547 -0.8128,-0.13546 -1.44498,-0.34995 -0.62089,-0.21449 -0.92569,-0.44027 z"
         id="path97"
         style="fill:#ffffff" />
      <path
         d="m 132.66768,93.888363 h 2.59644 v 5.125161 l -0.0903,2.212626 0.0903,0.0677 v 9.0537 l -2.59644,1.15147 z m 4.56071,18.513797 q -0.68862,0 -1.4224,-0.1016 -0.72249,-0.0903 -1.37725,-0.23707 -0.65475,-0.14675 -1.12889,-0.29351 -0.46284,-0.15804 -0.63217,-0.27093 l 2.59644,-1.4224 q 0.3048,0.21449 0.85796,0.33866 0.56444,0.11289 1.37725,0.11289 0.97084,0 1.73849,-0.54187 0.77893,-0.55315 1.23049,-1.61431 0.46284,-1.06115 0.48542,-2.60773 0.0226,-2.23521 -0.77894,-3.2625 -0.80151,-1.02729 -2.24649,-1.02729 -0.88053,0 -1.56915,0.33867 -0.68863,0.32738 -1.09503,0.63218 l -0.4064,-1.28694 q 0.25965,-0.27093 0.7112,-0.66604 0.45156,-0.4064 1.19663,-0.711201 0.74506,-0.316089 1.88524,-0.316089 1.33209,0 2.46098,0.65476 1.12889,0.64346 1.81752,1.97555 0.68862,1.3208 0.68862,3.35281 0,2.04329 -0.80151,3.61245 -0.79023,1.56915 -2.2352,2.46098 -1.4337,0.88053 -3.35281,0.88053 z"
         id="path99"
         style="fill:#ffffff" />
    </g>
    <path
       style="display:inline;fill:#ffffff;stroke-width:0.654149"
       d="m 389.33887,423.59494 c -7.16956,-2.55699 -8.735,-8.53299 -8.44812,-32.25033 l 0.17605,-14.55481 h 4.49611 4.49612 l 0.25953,17.17141 c 0.32979,21.8194 0.68721,22.73897 8.83284,22.72529 2.65155,-0.004 4.84502,-0.49089 7.23864,-1.60528 l 3.43428,-1.59889 V 395.13607 376.7898 h 4.57905 4.57904 v 23.87644 23.87643 h -3.22402 c -3.49963,0 -5.27992,-1.13696 -5.27992,-3.37198 0,-0.72384 -0.22077,-1.20244 -0.49061,-1.06354 -8.08441,4.16148 -15.32896,5.38515 -20.64899,3.48779 z"
       id="path579"
       transform="scale(0.26458333)" />
    <path
       style="fill:#ffffff;stroke-width:0.654149"
       d="m 439.5881,423.92888 c -5.98524,-1.46357 -11.0326,-6.09365 -13.53634,-12.41728 -2.08868,-5.27529 -2.08016,-16.43588 0.0166,-21.73504 1.95316,-4.93631 5.85639,-9.22941 10.43582,-11.47819 3.33936,-1.63984 4.43585,-1.83564 10.27958,-1.83564 3.85677,0 7.57875,0.36647 9.06884,0.89293 l 2.52735,0.89294 -0.44402,3.34717 c -0.24421,1.84094 -0.54037,3.44352 -0.65813,3.56128 -0.11776,0.11776 -1.91629,-0.28072 -3.99673,-0.88552 -10.87508,-3.16148 -18.92949,2.56023 -19.75016,14.03015 -1.03466,14.46079 7.9401,22.19304 20.66023,17.7999 3.47816,-1.20124 3.48313,-1.20101 4.00108,0.1849 1.41297,3.78075 1.3879,4.02533 -0.52876,5.15753 -4.30631,2.54379 -12.96596,3.73426 -18.07534,2.48487 z"
       id="path618"
       transform="scale(0.26458333)" />
    <path
       style="fill:#ffffff;stroke-width:0.654149"
       d="m 472.23452,423.90957 c -1.47269,-0.31458 -3.7876,-1.03575 -5.14426,-1.6026 l -2.46664,-1.03063 0.46288,-3.10941 c 0.25457,-1.71018 0.5546,-3.20416 0.66672,-3.31995 0.11213,-0.1158 1.63002,0.29396 3.37309,0.91057 1.74308,0.6166 5.7322,1.26188 8.8647,1.43395 5.64946,0.31033 5.71155,0.29677 7.68625,-1.67793 2.23693,-2.23693 2.41796,-3.29278 1.02607,-5.9844 -0.70172,-1.35698 -2.91818,-2.86478 -8.13033,-5.53086 -8.45908,-4.32693 -10.94948,-6.27765 -12.57058,-9.8465 -2.91416,-6.41549 -0.75876,-12.4572 5.60526,-15.71188 3.59397,-1.83803 4.35286,-1.97565 10.78093,-1.95513 4.92273,0.0157 7.60242,0.32792 9.30159,1.08369 l 2.38679,1.06162 -0.66429,3.16827 c -0.36535,1.74256 -0.73188,3.24574 -0.8145,3.34041 -0.0826,0.0947 -1.2555,-0.28969 -2.60639,-0.85413 -2.94409,-1.23012 -10.72728,-1.42464 -13.36053,-0.33392 -1.78639,0.73995 -3.35451,3.02276 -3.35451,4.88338 0,1.92466 2.99229,4.4101 9.2752,7.70413 3.64423,1.91061 8.08928,4.80641 9.87788,6.43512 2.93361,2.67135 3.28379,3.29218 3.57676,6.3412 0.17862,1.85895 0.1272,4.43304 -0.11427,5.72018 -0.57722,3.07688 -3.63804,6.48054 -7.08786,7.88179 -3.18847,1.29509 -12.53399,1.85516 -16.56996,0.99303 z"
       id="path657"
       transform="scale(0.26458333)" />
    <path
       style="fill:#ffffff;stroke-width:0.654149"
       d="m 509.07,423.51984 c -2.44032,-0.54356 -5.16321,-1.26442 -6.05088,-1.60191 l -1.61394,-0.61362 V 388.2536 355.20288 h 4.98249 4.9825 l -0.25546,12.97988 -0.25546,12.97988 2.43729,-1.76556 c 7.76328,-5.6237 19.80947,-3.60522 25.20436,4.22329 3.01459,4.37446 3.78281,7.5532 3.72432,15.4105 -0.0408,5.47511 -0.34927,7.63623 -1.52073,10.65254 -1.95794,5.04137 -7.41154,10.92657 -11.98175,12.92999 -4.40068,1.9291 -13.23269,2.33646 -19.65274,0.90644 z m 17.06925,-7.64874 c 3.96846,-2.62621 6.20069,-7.70493 6.54418,-14.88919 0.35528,-7.43107 -0.94485,-12.14874 -4.11517,-14.93231 -3.75419,-3.29623 -9.64551,-3.53729 -14.85756,-0.60796 l -2.49329,1.40131 v 14.9125 14.91251 l 1.79891,0.39676 c 0.9894,0.21821 2.09328,0.51067 2.45306,0.64989 0.35978,0.13923 2.32014,0.17021 4.35635,0.0689 2.69155,-0.13398 4.41506,-0.65603 6.31352,-1.91237 z"
       id="path696"
       transform="scale(0.26458333)" />
  </g>
  <g
     inkscape:groupmode="layer"
     id="layer3"
     inkscape:label="CENTER"
     transform="translate(-25.486698,-93.888363)">
    <text
       xml:space="preserve"
       style="font-size:6.35px;line-height:1.25;font-family:'Merriweather Sans';-inkscape-font-specification:'Merriweather Sans';letter-spacing:0.264583px;stroke-width:0.264583"
       x="42.75"
       y="118.47115"
       id="text140747"><tspan
         sodipodi:role="line"
         id="tspan140745"
         style="font-size:6.35px;stroke-width:0.264583"
         x="42.75"
         y="118.47115" /></text>
    <text
       xml:space="preserve"
       style="font-size:10.5833px;line-height:1.25;font-family:'Merriweather Sans';-inkscape-font-specification:'Merriweather Sans';stroke-width:0.264583"
       x="89.653847"
       y="128.59616"
       id="text190333"><tspan
         sodipodi:role="line"
         id="tspan190331"
         style="stroke-width:0.264583"
         x="89.653847"
         y="128.59616" /></text>
    <g
       aria-label="CENTER FOR SPATIAL STUDIES"
       id="text197645"
       style="font-size:5.99722px;line-height:1.35;font-family:'Merriweather Sans';-inkscape-font-specification:'Merriweather Sans';letter-spacing:1.32292px;fill:#ffffff;stroke-width:0.264583">
      <path
         d="m 43.430905,117.56773 q -0.151584,0.0662 -0.275607,0.12402 -0.121267,0.0579 -0.319705,0.12127 -0.16812,0.0524 -0.366558,0.0882 -0.195681,0.0386 -0.432703,0.0386 -0.446484,0 -0.813042,-0.12402 -0.363802,-0.12678 -0.633897,-0.39412 -0.264583,-0.26183 -0.413411,-0.66421 -0.148828,-0.40515 -0.148828,-0.93983 0,-0.50711 0.143315,-0.90674 0.143316,-0.39964 0.413412,-0.67524 0.261827,-0.26734 0.631141,-0.4079 0.37207,-0.14056 0.824066,-0.14056 0.330729,0 0.658702,0.0799 0.330729,0.0799 0.733115,0.28112 v 0.64768 h -0.04134 q -0.338997,-0.28387 -0.672482,-0.41341 -0.333485,-0.12954 -0.713823,-0.12954 -0.311436,0 -0.562239,0.10198 -0.248047,0.0992 -0.443728,0.31144 -0.190169,0.2067 -0.297656,0.52365 -0.104731,0.31419 -0.104731,0.7276 0,0.43271 0.115755,0.74414 0.118511,0.31144 0.303168,0.50712 0.192925,0.20395 0.44924,0.30317 0.259071,0.0965 0.545703,0.0965 0.394119,0 0.738628,-0.13505 0.344509,-0.13504 0.644921,-0.40514 h 0.03859 z"
         style="font-size:5.64444px;fill:#ffffff"
         id="path187" />
      <path
         d="m 47.415504,117.86539 h -2.027782 v -3.07785 h 2.027782 v 0.3638 h -1.618505 v 0.84336 h 1.618505 v 0.3638 h -1.618505 v 1.14309 h 1.618505 z"
         style="font-size:4.23333px;fill:#ffffff"
         id="path189" />
      <path
         d="m 51.735654,117.86539 h -0.506429 l -1.459341,-2.75332 v 2.75332 h -0.382405 v -3.07785 h 0.634586 l 1.331184,2.51354 v -2.51354 h 0.382405 z"
         style="font-size:4.23333px;fill:#ffffff"
         id="path191" />
      <path
         d="m 56.072342,115.15134 h -1.099674 v 2.71405 h -0.409277 v -2.71405 h -1.099674 v -0.3638 h 2.608625 z"
         style="font-size:4.23333px;fill:#ffffff"
         id="path193" />
      <path
         d="m 59.836454,117.86539 h -2.027781 v -3.07785 h 2.027781 v 0.3638 H 58.21795 v 0.84336 h 1.618504 v 0.3638 H 58.21795 v 1.14309 h 1.618504 z"
         style="font-size:4.23333px;fill:#ffffff"
         id="path195" />
      <path
         d="m 64.355041,117.86539 h -0.531233 l -1.029394,-1.2237 h -0.576708 v 1.2237 h -0.409277 v -3.07785 h 0.861962 q 0.279052,0 0.465087,0.0372 0.186035,0.0351 0.334863,0.12816 0.167432,0.10542 0.260449,0.26665 0.09509,0.15916 0.09509,0.40514 0,0.33279 -0.167432,0.5581 -0.167431,0.22325 -0.460953,0.33693 z m -0.957047,-2.21175 q 0,-0.13229 -0.04754,-0.23358 -0.04547,-0.10335 -0.152962,-0.17363 -0.08888,-0.06 -0.21084,-0.0827 -0.121956,-0.0248 -0.28732,-0.0248 h -0.481624 v 1.16169 h 0.413411 q 0.194303,0 0.338997,-0.0331 0.144694,-0.0351 0.24598,-0.12815 0.09302,-0.0868 0.136425,-0.19844 0.04547,-0.11369 0.04547,-0.28732 z"
         style="font-size:4.23333px;fill:#ffffff"
         id="path197" />
      <path
         d="m 70.851807,115.15134 h -1.556493 v 0.86817 h 1.337385 v 0.3638 h -1.337385 v 1.48208 h -0.409277 v -3.07785 h 1.96577 z"
         style="font-size:4.23333px;fill:#ffffff"
         id="path199" />
      <path
         d="m 74.936313,115.14101 q 0.188102,0.2067 0.28732,0.50643 0.101286,0.29972 0.101286,0.68006 0,0.38034 -0.103353,0.68213 -0.101285,0.29972 -0.285253,0.50022 -0.190169,0.20878 -0.450618,0.3142 -0.258382,0.10542 -0.591178,0.10542 -0.324528,0 -0.591178,-0.10749 -0.264583,-0.10749 -0.450618,-0.31213 -0.186035,-0.20464 -0.287321,-0.50229 -0.09922,-0.29766 -0.09922,-0.68006 0,-0.37621 0.09922,-0.67386 0.09922,-0.29973 0.289388,-0.51263 0.181901,-0.20257 0.450618,-0.31006 0.270784,-0.10749 0.589111,-0.10749 0.330729,0 0.593245,0.10956 0.264583,0.10748 0.448551,0.30799 z m -0.03721,1.18649 q 0,-0.59945 -0.268718,-0.92398 -0.268717,-0.32659 -0.733804,-0.32659 -0.469222,0 -0.737939,0.32659 -0.26665,0.32453 -0.26665,0.92398 0,0.60564 0.272851,0.92811 0.272851,0.32039 0.731738,0.32039 0.458886,0 0.72967,-0.32039 0.272852,-0.32247 0.272852,-0.92811 z"
         style="font-size:4.23333px;fill:#ffffff"
         id="path201" />
      <path
         d="m 79.843507,117.86539 h -0.531233 l -1.029394,-1.2237 h -0.576708 v 1.2237 h -0.409277 v -3.07785 h 0.861962 q 0.279053,0 0.465088,0.0372 0.186035,0.0351 0.334863,0.12816 0.167431,0.10542 0.260449,0.26665 0.09508,0.15916 0.09508,0.40514 0,0.33279 -0.167431,0.5581 -0.167432,0.22325 -0.460954,0.33693 z m -0.957046,-2.21175 q 0,-0.13229 -0.04754,-0.23358 -0.04548,-0.10335 -0.152962,-0.17363 -0.08888,-0.06 -0.210839,-0.0827 -0.121957,-0.0248 -0.287321,-0.0248 h -0.481624 v 1.16169 h 0.413411 q 0.194303,0 0.338997,-0.0331 0.144694,-0.0351 0.24598,-0.12815 0.09302,-0.0868 0.136425,-0.19844 0.04548,-0.11369 0.04548,-0.28732 z"
         style="font-size:4.23333px;fill:#ffffff"
         id="path203" />
      <path
         d="m 87.494377,116.69406 q 0,0.23977 -0.112999,0.47404 -0.110243,0.23427 -0.311436,0.39687 -0.220486,0.17639 -0.515386,0.27561 -0.292144,0.0992 -0.705555,0.0992 -0.443728,0 -0.799262,-0.0827 -0.352777,-0.0827 -0.719335,-0.24529 v -0.68351 h 0.03858 q 0.311436,0.25907 0.719335,0.39963 0.407899,0.14056 0.766189,0.14056 0.507118,0 0.788237,-0.19017 0.283876,-0.19017 0.283876,-0.50711 0,-0.27286 -0.135048,-0.40239 -0.132291,-0.12954 -0.405143,-0.20119 -0.206705,-0.0551 -0.44924,-0.091 -0.239778,-0.0358 -0.509873,-0.0909 -0.545703,-0.11575 -0.810286,-0.39411 -0.261827,-0.28112 -0.261827,-0.73036 0,-0.51539 0.435459,-0.84336 0.43546,-0.33073 1.105186,-0.33073 0.432704,0 0.79375,0.0827 0.361045,0.0827 0.639409,0.20395 v 0.64492 h -0.03858 q -0.234266,-0.19844 -0.617361,-0.32797 -0.380338,-0.13229 -0.779969,-0.13229 -0.438216,0 -0.705555,0.1819 -0.264583,0.1819 -0.264583,0.46853 0,0.25632 0.132292,0.40239 0.132291,0.14607 0.465776,0.22324 0.176389,0.0386 0.501606,0.0937 0.325216,0.0551 0.551215,0.11299 0.457508,0.12127 0.689018,0.36656 0.23151,0.24529 0.23151,0.68627 z"
         style="font-size:5.64444px;fill:#ffffff"
         id="path205" />
      <path
         d="m 91.569236,115.71772 q 0,0.20463 -0.07235,0.38033 -0.07028,0.17364 -0.198438,0.30179 -0.159163,0.15917 -0.376204,0.23978 -0.217041,0.0786 -0.54777,0.0786 h -0.409277 v 1.14722 H 89.55592 v -3.07785 h 0.835091 q 0.276985,0 0.469221,0.0475 0.192237,0.0455 0.341065,0.1447 0.175699,0.11782 0.270784,0.29352 0.09715,0.1757 0.09715,0.44442 z m -0.425813,0.0103 q 0,-0.15916 -0.05581,-0.27698 -0.05581,-0.11783 -0.169499,-0.19224 -0.09922,-0.0641 -0.227376,-0.091 -0.126091,-0.0289 -0.320394,-0.0289 h -0.405143 v 1.2299 H 90.3104 q 0.248046,0 0.403075,-0.0434 0.15503,-0.0455 0.252181,-0.14263 0.09715,-0.0992 0.136426,-0.20877 0.04134,-0.10955 0.04134,-0.24598 z"
         style="font-size:4.23333px;fill:#ffffff"
         id="path207" />
      <path
         d="M 95.755028,117.86539 H 95.31888 l -0.30179,-0.85783 h -1.331184 l -0.30179,0.85783 h -0.415478 l 1.120344,-3.07785 h 0.545702 z m -0.864029,-1.20923 -0.539501,-1.51102 -0.541569,1.51102 z"
         style="font-size:4.23333px;fill:#ffffff"
         id="path209" />
      <path
         d="m 99.492272,115.15134 h -1.099674 v 2.71405 h -0.409277 v -2.71405 h -1.099673 v -0.3638 h 2.608624 z"
         style="font-size:4.23333px;fill:#ffffff"
         id="path211" />
      <path
         d="m 102.3138,117.86539 h -1.21542 v -0.3142 h 0.40307 v -2.44946 h -0.40307 v -0.31419 h 1.21542 v 0.31419 h -0.40307 v 2.44946 h 0.40307 z"
         style="font-size:4.23333px;fill:#ffffff"
         id="path213" />
      <path
         d="m 106.76005,117.86539 h -0.43615 l -0.30179,-0.85783 h -1.33118 l -0.30179,0.85783 h -0.41548 l 1.12034,-3.07785 h 0.5457 z m -0.86403,-1.20923 -0.5395,-1.51102 -0.54157,1.51102 z"
         style="font-size:4.23333px;fill:#ffffff"
         id="path215" />
      <path
         d="m 110.49729,117.86539 h -1.94717 v -3.07785 h 0.40928 v 2.71405 h 1.53789 z"
         style="font-size:4.23333px;fill:#ffffff"
         id="path217" />
      <path
         d="m 118.16056,116.69406 q 0,0.23977 -0.113,0.47404 -0.11024,0.23427 -0.31143,0.39687 -0.22049,0.17639 -0.51539,0.27561 -0.29214,0.0992 -0.70556,0.0992 -0.44372,0 -0.79926,-0.0827 -0.35277,-0.0827 -0.71933,-0.24529 v -0.68351 h 0.0386 q 0.31144,0.25907 0.71934,0.39963 0.4079,0.14056 0.76619,0.14056 0.50711,0 0.78823,-0.19017 0.28388,-0.19017 0.28388,-0.50711 0,-0.27286 -0.13505,-0.40239 -0.13229,-0.12954 -0.40514,-0.20119 -0.20671,-0.0551 -0.44924,-0.091 -0.23978,-0.0358 -0.50987,-0.0909 -0.54571,-0.11575 -0.81029,-0.39411 -0.26183,-0.28112 -0.26183,-0.73036 0,-0.51539 0.43546,-0.84336 0.43546,-0.33073 1.10519,-0.33073 0.4327,0 0.79375,0.0827 0.36104,0.0827 0.63941,0.20395 v 0.64492 h -0.0386 q -0.23426,-0.19844 -0.61736,-0.32797 -0.38034,-0.13229 -0.77997,-0.13229 -0.43821,0 -0.70555,0.1819 -0.26459,0.1819 -0.26459,0.46853 0,0.25632 0.1323,0.40239 0.13229,0.14607 0.46577,0.22324 0.17639,0.0386 0.50161,0.0937 0.32521,0.0551 0.55121,0.11299 0.45751,0.12127 0.68902,0.36656 0.23151,0.24529 0.23151,0.68627 z"
         style="font-size:5.64444px;fill:#ffffff"
         id="path219" />
      <path
         d="m 122.41732,115.15134 h -1.09967 v 2.71405 h -0.40928 v -2.71405 h -1.09967 v -0.3638 h 2.60862 z"
         style="font-size:4.23333px;fill:#ffffff"
         id="path221" />
      <path
         d="m 126.47082,116.62929 q 0,0.33486 -0.0744,0.58497 -0.0724,0.24805 -0.23978,0.41342 -0.15916,0.15709 -0.37207,0.22944 -0.21291,0.0724 -0.49609,0.0724 -0.28939,0 -0.50436,-0.0765 -0.21498,-0.0765 -0.36174,-0.2253 -0.16743,-0.1695 -0.24185,-0.40928 -0.0723,-0.23978 -0.0723,-0.58911 v -1.84175 h 0.40927 V 116.65 q 0,0.25011 0.0331,0.39481 0.0351,0.14469 0.11575,0.26251 0.091,0.13436 0.24598,0.20257 0.1571,0.0682 0.37621,0.0682 0.22117,0 0.3762,-0.0661 0.15503,-0.0682 0.24805,-0.20464 0.0806,-0.11782 0.11369,-0.26872 0.0351,-0.15296 0.0351,-0.37827 v -1.87275 h 0.40927 z"
         style="font-size:4.23333px;fill:#ffffff"
         id="path223" />
      <path
         d="m 131.17544,116.32956 q 0,0.41962 -0.18397,0.76068 -0.1819,0.34107 -0.48575,0.52917 -0.21084,0.13022 -0.47129,0.1881 -0.25839,0.0579 -0.68213,0.0579 h -0.77721 v -3.07785 h 0.76894 q 0.45062,0 0.7152,0.0661 0.26665,0.0641 0.45062,0.17776 0.31419,0.19637 0.48989,0.52297 0.1757,0.32659 0.1757,0.77514 z m -0.42788,-0.006 q 0,-0.36173 -0.12609,-0.60978 -0.12609,-0.24804 -0.3762,-0.39067 -0.1819,-0.10335 -0.38654,-0.14263 -0.20464,-0.0413 -0.4899,-0.0413 h -0.38447 v 2.37505 h 0.38447 q 0.29559,0 0.5147,-0.0434 0.22118,-0.0434 0.40514,-0.16123 0.22945,-0.14676 0.34314,-0.38654 0.11575,-0.23978 0.11575,-0.59945 z"
         style="font-size:4.23333px;fill:#ffffff"
         id="path225" />
      <path
         d="m 134.24503,117.86539 h -1.21543 v -0.3142 h 0.40308 v -2.44946 h -0.40308 v -0.31419 h 1.21543 v 0.31419 h -0.40308 v 2.44946 h 0.40308 z"
         style="font-size:4.23333px;fill:#ffffff"
         id="path227" />
      <path
         d="m 138.29233,117.86539 h -2.02778 v -3.07785 h 2.02778 v 0.3638 h -1.61851 v 0.84336 h 1.61851 v 0.3638 h -1.61851 v 1.14309 h 1.61851 z"
         style="font-size:4.23333px;fill:#ffffff"
         id="path229" />
      <path
         d="m 142.50086,116.98689 q 0,0.17983 -0.0847,0.35553 -0.0827,0.1757 -0.23358,0.29766 -0.16536,0.13229 -0.38654,0.2067 -0.21911,0.0744 -0.52917,0.0744 -0.33279,0 -0.59944,-0.062 -0.26459,-0.062 -0.5395,-0.18397 v -0.51263 h 0.0289 q 0.23357,0.1943 0.5395,0.29972 0.30592,0.10542 0.57464,0.10542 0.38034,0 0.59118,-0.14263 0.2129,-0.14262 0.2129,-0.38033 0,-0.20464 -0.10128,-0.30179 -0.0992,-0.0972 -0.30386,-0.1509 -0.15503,-0.0413 -0.33693,-0.0682 -0.17983,-0.0269 -0.38241,-0.0682 -0.40927,-0.0868 -0.60771,-0.29559 -0.19637,-0.21084 -0.19637,-0.54777 0,-0.38654 0.32659,-0.63252 0.3266,-0.24805 0.82889,-0.24805 0.32453,0 0.59532,0.062 0.27078,0.062 0.47955,0.15296 v 0.4837 h -0.0289 q -0.1757,-0.14883 -0.46302,-0.24598 -0.28525,-0.0992 -0.58497,-0.0992 -0.32866,0 -0.52917,0.13642 -0.19844,0.13643 -0.19844,0.3514 0,0.19224 0.0992,0.30179 0.0992,0.10956 0.34933,0.16743 0.1323,0.0289 0.37621,0.0703 0.24391,0.0413 0.41341,0.0847 0.34313,0.0909 0.51676,0.27492 0.17364,0.18397 0.17364,0.5147 z"
         style="font-size:4.23333px;fill:#ffffff"
         id="path231" />
    </g>
  </g>
</svg>
